<?xml version="1.0" encoding="UTF-8"?>
<svg id="Layer_1" xmlns="http://www.w3.org/2000/svg" version="1.1" viewBox="0 0 238.26 38.59">
  <!-- Generator: Adobe Illustrator 30.5.1, SVG Export Plug-In . SVG Version: 2.1.4 Build 3)  -->
  <defs>
    <style>
      .st0 {
        fill: #1b1917;
      }
    </style>
  </defs>
  <g>
    <g>
      <path class="st0" d="M67.56,8.97l-.24-.36.24.36Z"/>
      <path class="st0" d="M39.74,36.38l-6.72-3.04-6.44-3.18c-.01.37.01.71-.12.67l-.77-.22c-.2-.06-.93-.18-.93.02l.03.96-2.31-1.03c.4.57.84,1.26,1.12,2.04l-2.49-2.43c-.96-.94-2.72,2.35-5.75,2.96l-.09-.49c-.01-.07-.13-.04-.2-.03l-1.7.34c0-.05-.08.47-.22.42l-.96-.33c-2.49.98-4.95,2.18-7.27,3.59l-4.92,1.95,4.75-2.68c2.26-1.28,13.84-6.77,15.72-7,2.16-.47,7.43.5,8.24-.11l6.75-5.09c3.48-2.63,5.75-9.21,8.77-6.39.88-.69,1.71-1.56,2.44-2.56.56-.76,1.46-1.03,2.22-1.56,1.33-.93,2.11-2.74,3.36-3.79l2.36-1.98c3.28-2.75,5.11-6.35,7.3-7.32,1.04-.46,1.75.71,2.22,1.32l4.41,5.72c.52.68,1.22.82,2.13.69,2.07,1.91,3.65,4.32,5.07,6.78.16.27.75.77,1.07.96l2.68-1.64c.44-.27.88-.65,1.2-.71s1.06.36,1.26.61l3.58,4.53,1.66,2.84,4.07,3.58c1.07.94,2.49,2.78,4.2,2.41,1.25-.27,2.22-.86,3.29.51l2.46,3.15,3.31,3.08c.88.81,2.66.68,3.48,2.02.4.66,1.53,1.27,2.22,1.8-.87-.05-1.76-.19-2.41-.4-.68-1.44-1.86-2.22-3.23-2.11-.97-1.2-2.22-1.95-3.74-2.54-.03-1.57-1.17-2.58-2.55-2.9l-1.06-1.51c-.13-.18-1.01-.11-1.07.11-.04.16-.05.53.06.66l.57.67-2.68,1.01-1-1.8c-.69-1.23-1.26-2.44-2.43-3.39l-4.94-4.01c-.43-2.75-2.14-2.65-3.58-4.23l-.29,1.22-1.52-3.78c-.28.7-.44,1.75-.81,1.85l-1.65.45,1.66,1.03-1.6.4c.9,2.56,2.76,3.21,2.65,5.14-.85-.26-1.3-1.09-1.83-1.96l-1.03-1.68-2.87-5.07.39,1.77-1.25-1.7.49-.66-1.57-1.98c-1.24.12-2.34-.8-3.15-1.49-.29-.36-.65-.72-.94-.85l-1.07-.5-.23.24,1.76,1.88.52,1.51-1.6-.68,2.7,3.46.45.64c.07.1-.42.05-.55.05l.5,1.97c-.71.72-1.01,1.22-1.31,2.06l-.77.23c-.22.06-.47.88-.44,1.13.12.77,1.02,1.57,1.63,2.28.91,1.06,1.83,2.58,3.24,2.91.31.07,1.13-.15,1.3.1l.67.97-1.02-.42c-.16-.07-.39.17-.69.38-1.48-.89-2.58-2.33-4.02-3.44-1.33-1.02-3.4-2.4-4.27-3.56-.11-.15-.61-.33-.74-.38s0,.49.05.75c-.38.21-.89,1.12-.76,1.6l1.07,3.88-2.05-4.31-.15,3.35-.26.33-.19-2.82-.58,3.69-.74-2.39-1.29,1.55-3.78,2.42c0-1.55,2.05-1.63,2.84-2.5l2.78-3.07c1.69-1.87,1.69-3.14,2.88-3.73l2.81,1.17c.08.03.62-.03.59-.11l-.22-.5,2.91-1.55c-.45-1.69-1.19-3.07-2.76-4.4l.08,1.84c-1.23-.2-2.1-1.55-2.39-2.58l-1.14-.81c-.34-.24.73-1.97-.56-2.68l-1.28,3.38.5-2.97-1.77,1.43,2.06-3.76.58-1.91c-.79-.96-1.19-2.11-1.54-3.73-1.74,2.72-3.86,5.2-6.49,7.45.24-1.09.95-1.83,1.72-2.72l-2.19,1.14c-2.6,1.35-4.57,3.67-6.35,5.95l-.1,1.68c-1.02,1.02-2.35,1.49-3.68,2.17l-1.66.85c-.99.5-1.64,2.71-3.24,2.08l1.11-2.29-2.56,2.62c-.69.7-1.05,1.42-1.79,2l-5.82,4.56-3.09,2.19,4.94,2.67,6.57,3.44.18.16c2.56.8,4.43-.92,6.41.8-1.15-.2-2.15-.65-2.91-.39-1.25.42-2.82.25-3.58-.24l-.29-.1ZM67.06,8.44l-.65-.74.39.93.26-.2ZM67.32,8.61l-.17.03-.17.15.43.73.3-.22-.15-.33.15-.08.19-.14-.31-.54c-.04-.08-.24-.13-.24-.04l-.03.44ZM68.07,8.99l-.13.16.13-.16Z"/>
      <path class="st0" d="M41.13,27.53c-.23.26-1.17.45-1.13.34,2.06-1.51,3.21-4.09,4.39-4.93l2.34-1.68c.05-.34.17-.99.31-1.22l1.26-2.04c.56.73.37,1.62-.36,2.08-.3.19-.73.62-.87.81.98-.39,1.49-.63,2.54-.78l-3.75,2.49c-.66.44-1.29.99-1.82,1.61l-2.88,3.31Z"/>
      <polygon class="st0" points="75.68 30.21 77.67 31.18 77.42 29.91 80.01 33.24 75.9 30.71 75.68 30.21"/>
      <path class="st0" d="M84.61,23.19l1.02.12c.19.02-.09.66-.31,1.17l-2.04-1.34-.58-.17c-.17-.05-.13-.56-.09-.73.49.33,1.46.89,1.99.95Z"/>
    </g>
    <path class="st0" d="M17.12,23.59s-.08,0-.11.02c-.28-.04-1.32-.5-1.59-.67,0-.13,0-.43,0-.65.03-.73.03-1.07-.08-1.24l-.02-.04c-.19-.3-.2-.38-.14-.42.32-.23.65-.63.67-1.04v-.04c.02-.2.04-.5-.17-.74-.17-.19-.44-.28-.84-.29h-.03c-.34,0-.53.15-.63.27-.32.39-.19,1.08-.12,1.42-.03,0-.06-.01-.1-.02,0-.03-.01-.07-.02-.1-.05-.3-.15-.92-.95-.92-.02,0-.04,0-.07,0-.26.01-.5.2-.7.56-.65,1.14-.99,4.2-.73,4.69.21.39.73.42,1.1.44.1,0,.25.02.33.03.09.45-.1,2.79-.16,3.08-.04.15-.52,1.08-.87,1.75-.75,1.45-.78,1.53-.78,1.63,0,.39.99,1.09,1,1.1l.11.07.92-.37-.18-.25s-.33-.44-.62-.58c-.02-.01-.04-.17.09-.46.06-.12.55-.84.91-1.36.47-.68.76-1.1.84-1.25.11-.2.11-.49.11-.77,0-.12,0-.3.02-.41.25.14.75.64.82.8.05.19.11,2.38.04,3.55h1.53s-.19-.52-.19-.52c0,0-.16-.45-.28-.81-.04-.14-.05-.79-.05-1.44l.84-4s.07.01.1.01c.24,0,.4-.18.4-.43,0-.22-.15-.63-.43-.63ZM15.17,25.15c-.08-.2-.02-.97.03-1.37.21.08.56.26.81.39.36.18.62.31.81.39l-.61,2.88c0-.42,0-.65,0-.73-.02-.22-.24-.51-.61-.95-.18-.22-.41-.5-.45-.61Z"/>
    <path class="st0" d="M26.98,21.3c-.04-.08-.1-.18-.14-.31-.11-.33-.35-.37-.44-.37-.14,0-.27.07-.37.15-.48-.3-1-.64-1.1-.75-.06-.18,0-.98,0-1.24.01-.15.02-.26.02-.32,0-.26-.17-.52-.29-.7,0-.01-.02-.02-.02-.03.04-.03.09-.07.13-.1.04-.03.07-.05.11-.08.27-.21.47-.65.36-1.14-.13-.62-.44-1.06-1-1.09-.03,0-.61,0-.88.44-.17.28-.22.65-.21.74.06.45.35.89.24.97-.11.07-.2.07-.33.07s-.46-.4-.25-.85c.13-.29-.2-.81-.6-.7-.13.04-.26.1-.39.16-.12.05-.25.11-.37.15-.15.05-.27.19-.37.43-.43,1.02-.7,4.42-.4,5.05.23.48.79.48,1.03.48h0c.07,0,.13,0,.2,0,.06,0,.11,0,.16,0,.08,0,.13,0,.16,0,.1.4.02,2.37-.05,2.86-.02.17-.46.91-.78,1.45-.67,1.14-.94,1.62-.92,1.87.04.47.85.88,1.2,1.04l.05.02h.82l-.25-.71-.02-.03c-.22-.29-.42-.65-.43-.76.1-.25,1.01-1.57,1.86-2.74l.05-.06v-.08c0-.37.07-.77.15-.88.12.07.37.4.55.75l.06,4.27.72.25.84-.21h.02c.23-.1.72.29.67-.14-.05-.35-.6-.7-.79-.8l.6-6.45h.01c.12,0,.32-.01.42-.18.09-.15.01-.3-.06-.43ZM24.67,22.61c0-.28.01-1.07.01-1.4.25.12,1.15.56,1.69.67l-.51,5.51c-.03-.37-.05-.78-.04-1.07.06-1.37.08-2.04-.02-2.28-.16-.39-.89-1.18-1.14-1.44Z"/>
  </g>
  <g>
    <path class="st0" d="M144.45,11.03h1.56v13.31c0,4.29-3.02,7.02-7.43,7.02s-7.37-2.54-7.37-7.21v-13.11h2.6v12.76c0,4,2.35,5.78,5.43,5.78s5.21-2.1,5.21-5.43v-13.11Z"/>
    <path class="st0" d="M157.3,30.88V11.03l5.4-.1c5.11-.1,7.56,2.6,7.56,5.46,0,4.32-3.49,6.54-7.72,6.54-.89,0-1.81-.06-2.64-.13v8.07h-2.6ZM159.91,12.3v9.15c.73.16,1.52.22,2.57.22,2.83,0,5.02-1.78,5.02-4.7,0-2.76-1.94-4.67-4.83-4.67h-2.76Z"/>
    <path class="st0" d="M190.07,30.88l-2.19-6.76h-7.37l-2.22,6.76h-1.49l6.16-18.45v-.89l3.05-1.05,6.83,20.39h-2.76ZM184.32,13.32h-.22l-3.14,9.49h6.48l-3.11-9.49Z"/>
    <path class="st0" d="M202.35,30.88V11.03h2.57v18.54h3.97c2.67,0,4.03-.19,5.4-.51v1.81h-11.94Z"/>
    <path class="st0" d="M235.5,30.88l-2.19-6.76h-7.37l-2.22,6.76h-1.49l6.16-18.45v-.89l3.05-1.05,6.83,20.39h-2.76ZM229.75,13.32h-.22l-3.14,9.49h6.48l-3.11-9.49Z"/>
  </g>
</svg>