<?xml version="1.0" encoding="UTF-8"?>
<svg id="Layer_1" xmlns="http://www.w3.org/2000/svg" version="1.1" viewBox="0 0 112.2 21.86">
  <!-- Generator: Adobe Illustrator 30.5.1, SVG Export Plug-In . SVG Version: 2.1.4 Build 3)  -->
  <defs>
    <style>
      .st0 {
        fill: #1b1917;
      }
    </style>
  </defs>
  <path class="st0" d="M13.88.57h1.63v13.94c0,4.49-3.16,7.35-7.79,7.35S0,19.2,0,14.31V.57h2.73v13.38c0,4.19,2.46,6.06,5.69,6.06s5.46-2.2,5.46-5.69V.57Z"/>
  <path class="st0" d="M27.35,21.37V.57l5.66-.1c5.36-.1,7.92,2.73,7.92,5.72,0,4.53-3.66,6.86-8.09,6.86-.93,0-1.9-.07-2.76-.13v8.45h-2.73ZM30.08,1.9v9.58c.77.17,1.6.23,2.7.23,2.96,0,5.26-1.86,5.26-4.92,0-2.9-2.03-4.89-5.06-4.89h-2.9Z"/>
  <path class="st0" d="M61.69,21.37l-2.3-7.09h-7.72l-2.33,7.09h-1.56l6.46-19.34v-.93l3.2-1.1,7.16,21.37h-2.9ZM55.67,2.96h-.23l-3.29,9.95h6.79l-3.26-9.95Z"/>
  <path class="st0" d="M74.56,21.37V.57h2.7v19.44h4.16c2.79,0,4.23-.2,5.66-.53v1.9h-12.51Z"/>
  <path class="st0" d="M109.3,21.37l-2.3-7.09h-7.72l-2.33,7.09h-1.56l6.46-19.34v-.93l3.19-1.1,7.16,21.37h-2.9ZM103.28,2.96h-.23l-3.29,9.95h6.79l-3.26-9.95Z"/>
</svg>