<?xml version="1.0" encoding="UTF-8"?>
<svg id="Layer_1" xmlns="http://www.w3.org/2000/svg" version="1.1" viewBox="0 0 140.29 49.1">
  <!-- Generator: Adobe Illustrator 30.5.1, SVG Export Plug-In . SVG Version: 2.1.4 Build 3)  -->
  <defs>
    <style>
      .st0 {
        fill: #ddd3be;
      }
    </style>
  </defs>
  <g>
    <path class="st0" d="M86.01,11.41l-.31-.46.31.46Z"/>
    <path class="st0" d="M50.61,46.29l-8.56-3.86-8.19-4.05c-.02.48.02.91-.16.86l-.98-.28c-.25-.07-1.19-.23-1.18.03l.04,1.22-2.95-1.31c.51.72,1.07,1.61,1.43,2.59l-3.16-3.09c-1.22-1.19-3.46,2.99-7.32,3.77l-.12-.63c-.02-.09-.16-.05-.26-.03l-2.17.43c0-.06-.1.6-.29.53l-1.23-.42c-3.16,1.25-6.3,2.78-9.25,4.57l-6.26,2.48,6.04-3.41c2.87-1.62,17.61-8.62,20-8.91,2.75-.6,9.45.64,10.48-.14l8.59-6.48c4.43-3.35,7.32-11.72,11.16-8.13,1.11-.88,2.18-1.98,3.11-3.25.71-.97,1.85-1.31,2.82-1.99,1.69-1.19,2.68-3.49,4.28-4.82l3-2.52c4.17-3.51,6.51-8.08,9.29-9.32,1.32-.59,2.23.91,2.83,1.69l5.62,7.28c.67.86,1.56,1.04,2.71.88,2.63,2.43,4.65,5.49,6.45,8.62.2.35.96.98,1.36,1.22l3.41-2.08c.55-.34,1.11-.83,1.53-.91s1.35.45,1.61.78l4.56,5.76,2.11,3.62,5.18,4.55c1.37,1.2,3.17,3.54,5.34,3.07,1.59-.34,2.83-1.09,4.19.65l3.14,4,4.22,3.92c1.11,1.03,3.39.86,4.43,2.56.51.84,1.94,1.62,2.83,2.29-1.11-.06-2.24-.24-3.06-.51-.86-1.83-2.36-2.82-4.11-2.69-1.23-1.53-2.83-2.48-4.77-3.24-.04-2-1.48-3.29-3.24-3.7l-1.35-1.92c-.16-.23-1.29-.14-1.36.14-.05.21-.06.67.07.84l.73.86-3.41,1.28-1.28-2.29c-.87-1.56-1.61-3.1-3.1-4.31l-6.29-5.11c-.55-3.5-2.72-3.37-4.56-5.39l-.37,1.56-1.94-4.81c-.36.89-.56,2.23-1.04,2.35l-2.1.57,2.11,1.31-2.04.51c1.14,3.25,3.51,4.08,3.38,6.54-1.08-.33-1.65-1.38-2.33-2.49l-1.31-2.14-3.65-6.45.5,2.25-1.59-2.17.62-.84-2-2.52c-1.57.15-2.98-1.02-4.01-1.9-.36-.45-.83-.91-1.2-1.09l-1.37-.64-.29.3,2.24,2.39.67,1.93-2.03-.86,3.44,4.4.57.81c.09.12-.54.07-.7.07l.64,2.51c-.9.92-1.29,1.56-1.67,2.62l-.99.29c-.28.08-.6,1.12-.55,1.44.15.98,1.3,2,2.07,2.9,1.15,1.35,2.32,3.28,4.12,3.71.4.09,1.44-.19,1.65.12l.85,1.23-1.3-.54c-.2-.08-.5.21-.87.48-1.89-1.14-3.28-2.97-5.12-4.38-1.69-1.3-4.33-3.06-5.43-4.53-.14-.19-.78-.42-.94-.48s0,.63.06.95c-.49.27-1.13,1.42-.96,2.03l1.36,4.94-2.61-5.49-.2,4.26-.33.42-.24-3.59-.74,4.7-.94-3.04-1.65,1.97-4.82,3.08c0-1.97,2.61-2.07,3.62-3.18l3.54-3.9c2.15-2.37,2.15-4,3.66-4.75l3.58,1.49c.1.04.79-.03.75-.14l-.27-.64,3.7-1.98c-.57-2.15-1.51-3.91-3.51-5.61l.1,2.34c-1.57-.25-2.68-1.97-3.04-3.28l-1.45-1.03c-.44-.31.93-2.51-.72-3.41l-1.63,4.31.63-3.78-2.26,1.82,2.62-4.79.74-2.43c-1-1.22-1.52-2.68-1.96-4.75-2.22,3.46-4.91,6.62-8.26,9.49.3-1.39,1.22-2.32,2.19-3.46l-2.78,1.45c-3.31,1.72-5.81,4.68-8.09,7.58l-.13,2.14c-1.3,1.3-3,1.9-4.69,2.77l-2.11,1.08c-1.26.64-2.08,3.45-4.12,2.64l1.41-2.91-3.26,3.33c-.87.89-1.34,1.81-2.27,2.54l-7.4,5.8-3.94,2.79,6.29,3.4,8.36,4.38.22.2c3.26,1.02,5.64-1.17,8.16,1.02-1.47-.26-2.74-.82-3.7-.5-1.59.54-3.58.32-4.55-.31l-.36-.13.03.03ZM85.37,10.74l-.83-.94.49,1.19.33-.25h.01ZM85.71,10.95l-.22.03-.21.2.54.92.38-.28-.19-.41.19-.1.25-.18-.39-.69c-.06-.1-.3-.16-.31-.05l-.04.55h0ZM86.66,11.43l-.17.21.17-.21Z"/>
    <path class="st0" d="M52.37,35.03c-.29.33-1.49.58-1.44.43,2.63-1.93,4.09-5.2,5.58-6.27l2.97-2.13c.06-.43.21-1.26.39-1.55l1.6-2.6c.71.93.47,2.06-.46,2.65-.38.24-.93.79-1.11,1.03,1.25-.5,1.89-.81,3.23-1l-4.77,3.18c-.84.56-1.64,1.27-2.32,2.05l-3.67,4.22h0Z"/>
    <polygon class="st0" points="96.35 38.44 98.88 39.67 98.56 38.06 101.86 42.3 96.62 39.08 96.35 38.44"/>
    <path class="st0" d="M107.71,29.5l1.3.16c.24.03-.11.83-.39,1.49l-2.6-1.71-.73-.22c-.22-.06-.17-.71-.11-.93.62.41,1.85,1.13,2.54,1.21h-.01Z"/>
  </g>
  <path class="st0" d="M21.81,30.02s-.1.01-.14.03c-.35-.05-1.68-.64-2.02-.85-.01-.16,0-.54.01-.83.03-.93.03-1.36-.1-1.58l-.03-.05c-.24-.38-.25-.48-.18-.53.4-.29.82-.81.86-1.32v-.06c.02-.25.05-.64-.22-.94-.22-.24-.57-.36-1.07-.37h-.04c-.43,0-.67.19-.8.34-.41.5-.24,1.37-.15,1.8-.04,0-.08-.01-.12-.02,0-.04-.01-.08-.02-.12-.06-.38-.19-1.17-1.21-1.17h-.08c-.34.01-.64.25-.89.71-.82,1.45-1.26,5.35-.92,5.97.27.49.92.53,1.4.57.13,0,.32.02.42.04.11.58-.13,3.56-.21,3.91-.05.19-.66,1.37-1.1,2.23-.95,1.85-.99,1.95-.99,2.08,0,.49,1.26,1.39,1.28,1.4l.14.1,1.17-.47-.24-.32c-.04-.06-.42-.56-.79-.74-.03-.02-.05-.22.12-.59.07-.15.7-1.06,1.16-1.73.6-.87.97-1.4,1.07-1.59.14-.26.14-.63.14-.98,0-.15,0-.38.03-.52.31.17.96.81,1.04,1.02.07.24.13,3.02.05,4.52h1.94l-.24-.66s-.21-.57-.36-1.03c-.06-.17-.07-1-.06-1.83l1.07-5.09s.09.01.13.01c.3,0,.51-.22.51-.54,0-.28-.19-.8-.55-.8h-.01ZM19.33,32c-.1-.26-.03-1.24.04-1.74.26.1.71.33,1.04.5.45.23.79.4,1.04.5l-.77,3.66c0-.53.01-.82,0-.93-.02-.28-.31-.64-.77-1.21-.23-.28-.52-.63-.57-.77h-.01Z"/>
  <path class="st0" d="M34.36,27.1c-.05-.1-.12-.23-.18-.39-.14-.42-.44-.47-.56-.47-.18,0-.35.09-.47.19-.62-.38-1.27-.81-1.4-.95-.08-.22-.01-1.25.01-1.58.01-.19.02-.33.02-.41,0-.33-.22-.66-.38-.9,0-.01-.02-.03-.03-.04.05-.04.12-.09.17-.13.04-.03.09-.07.14-.1.35-.27.59-.83.46-1.46-.17-.79-.56-1.34-1.27-1.38-.03,0-.78,0-1.12.56-.22.36-.28.82-.26.94.07.58.45,1.14.31,1.23-.14.09-.26.09-.42.09s-.58-.5-.32-1.08c.16-.37-.26-1.03-.76-.89-.17.05-.33.13-.49.2-.16.07-.32.14-.47.19-.19.06-.34.24-.47.55-.55,1.3-.89,5.63-.51,6.43.29.61,1.01.61,1.32.61h.45c.1,0,.16,0,.2.01.13.51.02,3.02-.06,3.64-.03.21-.59,1.15-.99,1.84-.85,1.45-1.19,2.07-1.17,2.38.05.6,1.09,1.12,1.53,1.32l.06.03h1.05l-.31-.9-.03-.04c-.28-.37-.53-.82-.55-.96.13-.31,1.29-2,2.37-3.49l.06-.08v-.1c0-.47.09-.98.19-1.12.16.08.47.51.7.96l.08,5.43.92.31,1.07-.26h.02c.29-.13.92.36.85-.18-.06-.45-.77-.9-1.01-1.02l.76-8.21h0c.15,0,.41-.02.53-.22.11-.2,0-.39-.07-.55h.02ZM31.42,28.76c0-.36.02-1.36.02-1.78.32.16,1.47.71,2.15.86l-.65,7.01c-.04-.48-.07-.99-.05-1.37.08-1.74.1-2.6-.02-2.9-.2-.5-1.14-1.5-1.44-1.83h0Z"/>
</svg>