<?xml version="1.0" encoding="UTF-8"?>
<svg id="Layer_1" xmlns="http://www.w3.org/2000/svg" version="1.1" viewBox="0 0 238.23 129.54">
  <!-- Generator: Adobe Illustrator 30.5.1, SVG Export Plug-In . SVG Version: 2.1.4 Build 3)  -->
  <defs>
    <style>
      .st0 {
        fill: #1b1917;
      }
    </style>
  </defs>
  <path class="st0" d="M26.37,128.89l-.87-1.31.11-1.57c.02-.32.72-.13.87.15l1.12,1.95.6.85-.47.59-.82-.94-.54.28Z"/>
  <g>
    <g>
      <path class="st0" d="M135.39,11.42l-.31-.46.31.46Z"/>
      <path class="st0" d="M99.99,46.3l-8.56-3.86-8.19-4.05c-.02.48.02.91-.16.86l-.98-.28c-.25-.07-1.19-.23-1.18.03l.04,1.22-2.95-1.31c.51.72,1.07,1.61,1.43,2.59l-3.16-3.09c-1.22-1.19-3.46,2.99-7.32,3.77l-.12-.63c-.02-.09-.16-.05-.26-.03l-2.17.43c0-.06-.1.6-.29.53l-1.23-.42c-3.16,1.25-6.3,2.78-9.25,4.57l-6.26,2.48,6.04-3.41c2.87-1.62,17.61-8.62,20-8.91,2.75-.6,9.45.64,10.48-.14l8.59-6.48c4.43-3.35,7.32-11.72,11.16-8.13,1.11-.88,2.18-1.98,3.11-3.25.71-.97,1.85-1.31,2.82-1.99,1.69-1.19,2.68-3.49,4.28-4.82l3-2.52c4.17-3.51,6.51-8.08,9.29-9.32,1.32-.59,2.23.91,2.83,1.69l5.62,7.28c.67.86,1.56,1.04,2.71.88,2.63,2.43,4.65,5.49,6.45,8.62.2.35.96.98,1.36,1.22l3.41-2.08c.55-.34,1.11-.83,1.53-.91s1.35.45,1.61.78l4.56,5.76,2.11,3.62,5.18,4.55c1.37,1.2,3.17,3.54,5.34,3.07,1.59-.34,2.83-1.09,4.19.65l3.14,4,4.22,3.92c1.11,1.03,3.39.86,4.43,2.56.51.84,1.94,1.62,2.83,2.29-1.11-.06-2.24-.24-3.06-.51-.86-1.83-2.36-2.82-4.11-2.69-1.23-1.53-2.83-2.48-4.77-3.24-.04-2-1.48-3.29-3.24-3.7l-1.35-1.92c-.16-.23-1.29-.14-1.36.14-.05.21-.06.67.07.84l.73.86-3.41,1.28-1.28-2.29c-.87-1.56-1.61-3.1-3.1-4.31l-6.29-5.11c-.55-3.5-2.72-3.37-4.56-5.39l-.37,1.56-1.94-4.81c-.36.89-.56,2.23-1.04,2.35l-2.1.57,2.11,1.31-2.04.51c1.14,3.25,3.51,4.08,3.38,6.54-1.08-.33-1.65-1.38-2.33-2.49l-1.31-2.14-3.65-6.45.5,2.25-1.59-2.17.62-.84-2-2.52c-1.57.15-2.98-1.02-4.01-1.9-.36-.45-.83-.91-1.2-1.09l-1.37-.64-.29.3,2.24,2.39.67,1.93-2.03-.86,3.44,4.4.57.81c.09.12-.54.07-.7.07l.64,2.51c-.9.92-1.29,1.56-1.67,2.62l-.99.29c-.28.08-.6,1.12-.55,1.44.15.98,1.3,2,2.07,2.9,1.15,1.35,2.32,3.28,4.12,3.71.4.09,1.44-.19,1.65.12l.85,1.23-1.3-.54c-.2-.08-.5.21-.87.48-1.89-1.14-3.28-2.97-5.12-4.38-1.69-1.3-4.33-3.06-5.43-4.53-.14-.19-.78-.42-.94-.48s0,.63.06.95c-.49.27-1.13,1.42-.96,2.03l1.36,4.94-2.61-5.49-.2,4.26-.33.42-.24-3.59-.74,4.7-.94-3.04-1.65,1.97-4.82,3.08c0-1.97,2.61-2.07,3.62-3.18l3.54-3.9c2.15-2.37,2.15-4,3.66-4.75l3.58,1.49c.1.04.79-.03.75-.14l-.27-.64,3.7-1.98c-.57-2.15-1.51-3.91-3.51-5.61l.1,2.34c-1.57-.25-2.68-1.97-3.04-3.28l-1.45-1.03c-.44-.31.93-2.51-.72-3.41l-1.63,4.31.63-3.78-2.26,1.82,2.62-4.79.74-2.43c-1-1.22-1.52-2.68-1.96-4.75-2.22,3.46-4.91,6.62-8.26,9.49.3-1.39,1.22-2.32,2.19-3.46l-2.78,1.45c-3.31,1.72-5.81,4.68-8.09,7.58l-.13,2.14c-1.3,1.3-3,1.9-4.69,2.77l-2.11,1.08c-1.26.64-2.08,3.45-4.12,2.64l1.41-2.91-3.26,3.33c-.87.89-1.34,1.81-2.27,2.54l-7.4,5.8-3.94,2.79,6.29,3.4,8.36,4.38.22.2c3.26,1.02,5.64-1.17,8.16,1.02-1.47-.26-2.74-.82-3.7-.5-1.59.54-3.58.32-4.55-.31l-.36-.13ZM134.75,10.75l-.83-.94.49,1.19.33-.25ZM135.09,10.96l-.22.03-.21.2.54.92.38-.28-.19-.41.19-.1.25-.18-.39-.69c-.06-.1-.3-.16-.31-.05l-.04.55ZM136.04,11.44l-.17.21.17-.21Z"/>
      <path class="st0" d="M101.75,35.04c-.29.33-1.49.58-1.44.43,2.63-1.93,4.09-5.2,5.58-6.27l2.97-2.13c.06-.43.21-1.26.39-1.55l1.6-2.6c.71.93.47,2.06-.46,2.65-.38.24-.93.79-1.11,1.03,1.25-.5,1.89-.81,3.23-1l-4.77,3.18c-.84.56-1.64,1.27-2.32,2.05l-3.67,4.22Z"/>
      <polygon class="st0" points="145.73 38.45 148.26 39.68 147.94 38.07 151.24 42.31 146 39.09 145.73 38.45"/>
      <path class="st0" d="M157.09,29.51l1.3.16c.24.03-.11.83-.39,1.49l-2.6-1.71-.73-.22c-.22-.06-.17-.71-.11-.93.62.41,1.85,1.13,2.54,1.21Z"/>
    </g>
    <path class="st0" d="M71.2,30.03c-.05,0-.1.01-.14.03-.35-.05-1.68-.64-2.02-.85-.01-.16,0-.54.01-.83.03-.93.03-1.36-.1-1.58l-.03-.05c-.24-.38-.25-.48-.18-.53.4-.29.82-.81.86-1.32v-.06c.02-.25.05-.64-.22-.94-.22-.24-.57-.36-1.07-.37h-.04c-.43,0-.67.19-.8.34-.41.5-.24,1.37-.15,1.8-.04,0-.08-.01-.12-.02,0-.04-.01-.08-.02-.12-.06-.38-.19-1.17-1.21-1.17-.03,0-.06,0-.08,0-.34.01-.64.25-.89.71-.82,1.45-1.26,5.35-.92,5.97.27.49.92.53,1.4.57.13,0,.32.02.42.04.11.58-.13,3.56-.21,3.91-.05.19-.66,1.37-1.1,2.23-.95,1.85-.99,1.95-.99,2.08,0,.49,1.26,1.39,1.28,1.4l.14.1,1.17-.47-.24-.32c-.04-.06-.42-.56-.79-.74-.03-.02-.05-.22.12-.59.07-.15.7-1.06,1.16-1.73.6-.87.97-1.4,1.07-1.59.14-.26.14-.63.14-.98,0-.15,0-.38.03-.52.31.17.96.81,1.04,1.02.07.24.13,3.02.05,4.52h1.94s-.24-.66-.24-.66c0,0-.21-.57-.36-1.03-.06-.17-.07-1-.06-1.83l1.07-5.09s.09.01.13.01c.3,0,.51-.22.51-.54,0-.28-.19-.8-.55-.8ZM68.71,32.01c-.1-.26-.03-1.24.04-1.74.26.1.71.33,1.04.5.45.23.79.4,1.04.5l-.77,3.66c0-.53.01-.82,0-.93-.02-.28-.31-.64-.77-1.21-.23-.28-.52-.63-.57-.77Z"/>
    <path class="st0" d="M83.74,27.11c-.05-.1-.12-.23-.18-.39-.14-.42-.44-.47-.56-.47-.18,0-.35.09-.47.19-.62-.38-1.27-.81-1.4-.95-.08-.22-.01-1.25.01-1.58.01-.19.02-.33.02-.41,0-.33-.22-.66-.38-.9,0-.01-.02-.03-.03-.04.05-.04.12-.09.17-.13.04-.03.09-.07.14-.1.35-.27.59-.83.46-1.46-.17-.79-.56-1.34-1.27-1.38-.03,0-.78,0-1.12.56-.22.36-.28.82-.26.94.07.58.45,1.14.31,1.23-.14.09-.26.09-.42.09s-.58-.5-.32-1.08c.16-.37-.26-1.03-.76-.89-.17.05-.33.13-.49.2-.16.07-.32.14-.47.19-.19.06-.34.24-.47.55-.55,1.3-.89,5.63-.51,6.43.29.61,1.01.61,1.32.61h0c.09,0,.17,0,.25,0,.07,0,.14,0,.2,0,.1,0,.16,0,.2.01.13.51.02,3.02-.06,3.64-.03.21-.59,1.15-.99,1.84-.85,1.45-1.19,2.07-1.17,2.38.05.6,1.09,1.12,1.53,1.32l.06.03h1.05l-.31-.9-.03-.04c-.28-.37-.53-.82-.55-.96.13-.31,1.29-2,2.37-3.49l.06-.08v-.1c0-.47.09-.98.19-1.12.16.08.47.51.7.96l.08,5.43.92.31,1.07-.26h.02c.29-.13.92.36.85-.18-.06-.45-.77-.9-1.01-1.02l.76-8.21h.01c.15,0,.41-.02.53-.22.11-.2.01-.39-.07-.55ZM80.8,28.77c0-.36.02-1.36.02-1.78.32.16,1.47.71,2.15.86l-.65,7.01c-.04-.48-.07-.99-.05-1.37.08-1.74.1-2.6-.02-2.9-.2-.5-1.14-1.5-1.44-1.83Z"/>
  </g>
  <g>
    <path class="st0" d="M77.9,68.83h1.63v13.94c0,4.49-3.16,7.35-7.79,7.35s-7.72-2.66-7.72-7.55v-13.74h2.73v13.38c0,4.19,2.46,6.06,5.69,6.06s5.46-2.2,5.46-5.69v-13.74Z"/>
    <path class="st0" d="M91.37,89.63v-20.8l5.66-.1c5.36-.1,7.92,2.73,7.92,5.72,0,4.53-3.66,6.86-8.09,6.86-.93,0-1.9-.07-2.76-.13v8.45h-2.73ZM94.1,70.17v9.58c.77.17,1.6.23,2.7.23,2.96,0,5.26-1.86,5.26-4.93,0-2.9-2.03-4.89-5.06-4.89h-2.9Z"/>
    <path class="st0" d="M125.71,89.63l-2.3-7.09h-7.72l-2.33,7.09h-1.56l6.46-19.34v-.93l3.19-1.1,7.16,21.37h-2.9ZM119.68,71.23h-.23l-3.29,9.95h6.79l-3.26-9.95Z"/>
    <path class="st0" d="M138.58,89.63v-20.8h2.7v19.44h4.16c2.8,0,4.23-.2,5.66-.53v1.9h-12.51Z"/>
    <path class="st0" d="M173.32,89.63l-2.3-7.09h-7.72l-2.33,7.09h-1.56l6.46-19.34v-.93l3.19-1.1,7.16,21.37h-2.9ZM167.29,71.23h-.23l-3.29,9.95h6.79l-3.26-9.95Z"/>
  </g>
  <g>
    <path class="st0" d="M3.76,112.21c-1.17,0-2.08-.32-2.75-.95s-1.01-1.65-1.01-3.06v-5.94h1.12v5.88c0,1.13.21,1.94.64,2.43.43.49,1.09.73,2,.73s1.54-.28,1.94-.83c.4-.55.6-1.27.6-2.15v-6.07h1.12v6.02c0,1.34-.32,2.33-.96,2.97-.64.64-1.54.96-2.71.96Z"/>
    <path class="st0" d="M14.83,112.09v-9.82h1.01l4.38,6.33c.21.29.41.58.6.87.19.29.37.58.54.87h.03c-.03-.77-.05-1.53-.05-2.29v-5.79h1.09v9.82h-1.01l-4.29-6.16c-.46-.67-.87-1.36-1.23-2.07h-.03c.03.92.05,1.84.05,2.76v5.47h-1.09Z"/>
    <path class="st0" d="M38.29,112.09v-9.82h2.9c.97,0,1.76.24,2.37.72s.92,1.2.92,2.16c0,.66-.15,1.2-.45,1.64s-.71.76-1.22.98c-.51.22-1.1.33-1.77.33h-1.62v3.99h-1.12ZM39.41,107.19h1.14c.54,0,1.02-.06,1.43-.18.41-.12.73-.33.97-.62.23-.3.35-.7.35-1.22s-.12-.91-.35-1.2c-.23-.29-.53-.5-.9-.62-.36-.12-.75-.18-1.15-.18h-1.48v4.02Z"/>
    <path class="st0" d="M49,112.09l3.87-9.82h1.04l3.8,9.82h-1.18l-1.08-2.82h-4.21l-1.08,2.82h-1.17ZM51.56,108.38h3.56l-.94-2.54c-.1-.28-.23-.64-.38-1.07-.15-.43-.29-.85-.41-1.26h-.03c-.12.41-.26.81-.41,1.22-.15.41-.29.78-.41,1.1l-.97,2.54Z"/>
    <path class="st0" d="M66.64,112.21c-.5,0-1-.05-1.5-.14s-.99-.25-1.48-.48l.28-.92c.85.43,1.73.64,2.64.64.62,0,1.15-.15,1.58-.44.43-.29.64-.72.64-1.29,0-.41-.13-.77-.4-1.08-.26-.32-.78-.6-1.54-.85l-1.03-.33c-.66-.21-1.18-.51-1.58-.91-.4-.4-.6-.93-.6-1.58,0-.83.28-1.49.83-1.97.56-.48,1.35-.72,2.38-.72.46,0,.91.04,1.34.12.44.08.86.23,1.28.44l-.28.9c-.44-.21-.83-.35-1.19-.44s-.73-.12-1.1-.12c-.63,0-1.14.14-1.53.43s-.58.69-.58,1.21c0,.46.15.82.44,1.08.29.26.74.5,1.34.71l1.04.34c.8.26,1.39.62,1.76,1.09.38.47.56,1,.56,1.59,0,.55-.14,1.03-.41,1.44-.28.41-.66.73-1.16.95-.5.22-1.08.33-1.73.33Z"/>
    <path class="st0" d="M84.2,112.09l3.87-9.82h1.04l3.8,9.82h-1.18l-1.08-2.82h-4.21l-1.08,2.82h-1.17ZM86.75,108.38h3.56l-.94-2.54c-.1-.28-.23-.64-.38-1.07s-.29-.85-.41-1.26h-.03c-.12.41-.26.81-.41,1.22-.15.41-.29.78-.41,1.1l-.97,2.54Z"/>
    <path class="st0" d="M99.37,112.09v-9.82h2.9c.97,0,1.76.24,2.37.72s.92,1.2.92,2.16c0,.66-.15,1.2-.45,1.64s-.71.76-1.22.98c-.51.22-1.11.33-1.77.33h-1.62v3.99h-1.12ZM100.49,107.19h1.14c.54,0,1.02-.06,1.43-.18.41-.12.73-.33.97-.62.23-.3.35-.7.35-1.22s-.12-.91-.35-1.2c-.23-.29-.53-.5-.9-.62-.36-.12-.75-.18-1.15-.18h-1.48v4.02Z"/>
    <path class="st0" d="M112.36,112.09v-9.82h3.04c1.02,0,1.79.26,2.32.79.53.53.79,1.2.79,2.04,0,.5-.1.94-.3,1.31-.2.38-.46.68-.77.92-.32.24-.66.42-1.02.55l2.67,4.23h-1.26l-2.45-4.01h-1.98v4.01h-1.04ZM113.41,107.16h1.5c.71,0,1.29-.16,1.75-.48s.69-.83.69-1.53-.2-1.19-.59-1.5c-.4-.32-.97-.48-1.73-.48h-1.62v3.99Z"/>
    <path class="st0" d="M125.6,112.09v-9.82h5.77v.92h-4.65v3.37h4.24v.9h-4.24v3.71h4.69v.92h-5.82ZM128.91,101.02l-1.73-1.93h1.29l1.33,1.93h-.89Z"/>
    <path class="st0" d="M140.81,112.21c-.5,0-1-.05-1.5-.14s-.99-.25-1.48-.48l.28-.92c.85.43,1.73.64,2.64.64.62,0,1.15-.15,1.58-.44.43-.29.64-.72.64-1.29,0-.41-.13-.77-.4-1.08-.26-.32-.78-.6-1.54-.85l-1.03-.33c-.65-.21-1.18-.51-1.58-.91-.4-.4-.6-.93-.6-1.58,0-.83.28-1.49.83-1.97.56-.48,1.35-.72,2.38-.72.46,0,.91.04,1.34.12.44.08.86.23,1.28.44l-.28.9c-.44-.21-.83-.35-1.19-.44s-.73-.12-1.1-.12c-.63,0-1.14.14-1.53.43s-.58.69-.58,1.21c0,.46.15.82.44,1.08.29.26.74.5,1.34.71l1.04.34c.8.26,1.39.62,1.76,1.09.38.47.56,1,.56,1.59,0,.55-.14,1.03-.41,1.44-.28.41-.66.73-1.16.95-.5.22-1.08.33-1.73.33Z"/>
    <path class="st0" d="M159.4,112.09v-9.82h1.12v8.89h4.35v.94h-5.47Z"/>
    <path class="st0" d="M169.44,104.35l-.37-.53c.29-.16.54-.36.75-.6.21-.24.34-.52.39-.83l-.17-.03c-.22-.03-.39-.13-.52-.29s-.19-.36-.19-.58.07-.41.22-.57.34-.24.59-.24c.21,0,.42.08.62.25.21.17.31.5.31,1s-.16.98-.47,1.42c-.31.44-.7.78-1.15,1.01Z"/>
    <path class="st0" d="M176.68,112.09l3.87-9.82h1.04l3.8,9.82h-1.18l-1.08-2.82h-4.21l-1.08,2.82h-1.17ZM179.23,108.38h3.56l-.94-2.54c-.1-.28-.23-.64-.38-1.07s-.29-.85-.41-1.26h-.03c-.12.41-.26.81-.41,1.22-.15.41-.29.78-.41,1.1l-.97,2.54Z"/>
    <path class="st0" d="M195.3,112.21c-1.16,0-2.08-.32-2.75-.95-.67-.63-1.01-1.65-1.01-3.06v-5.94h1.12v5.88c0,1.13.21,1.94.64,2.43.43.49,1.09.73,2,.73s1.54-.28,1.94-.83c.4-.55.6-1.27.6-2.15v-6.07h1.12v6.02c0,1.34-.32,2.33-.96,2.97s-1.54.96-2.71.96Z"/>
    <path class="st0" d="M208.44,112.09v-8.89h-3.17v-.94h7.52v.94h-3.23v8.89h-1.12Z"/>
    <path class="st0" d="M219.17,112.09v-9.82h3.04c1.02,0,1.79.26,2.32.79.53.53.79,1.2.79,2.04,0,.5-.1.94-.3,1.31-.2.38-.46.68-.77.92-.32.24-.66.42-1.02.55l2.67,4.23h-1.26l-2.45-4.01h-1.98v4.01h-1.04ZM220.22,107.16h1.5c.71,0,1.29-.16,1.75-.48s.69-.83.69-1.53-.2-1.19-.59-1.5c-.4-.32-.97-.48-1.73-.48h-1.62v3.99Z"/>
    <path class="st0" d="M232.41,112.09v-9.82h5.77v.92h-4.65v3.37h4.24v.9h-4.24v3.71h4.69v.92h-5.82Z"/>
  </g>
</svg>