<?xml version="1.0" encoding="UTF-8"?>
<svg id="Layer_1" xmlns="http://www.w3.org/2000/svg" version="1.1" viewBox="0 0 275.23 201.03">
  <!-- Generator: Adobe Illustrator 30.5.1, SVG Export Plug-In . SVG Version: 2.1.4 Build 3)  -->
  <defs>
    <style>
      .st0 {
        fill: #1b1917;
      }
    </style>
  </defs>
  <g>
    <g>
      <g>
        <path class="st0" d="M112.48,78.27l-.31-.46.31.46Z"/>
        <path class="st0" d="M77.07,113.15l-8.56-3.86-8.19-4.05c-.02.48.02.91-.16.86l-.98-.28c-.25-.07-1.19-.23-1.18.03l.04,1.22-2.95-1.31c.51.72,1.07,1.61,1.43,2.59l-3.16-3.09c-1.22-1.19-3.46,2.99-7.32,3.77l-.12-.63c-.02-.09-.16-.05-.26-.03l-2.17.43c0-.06-.1.6-.29.53l-1.23-.42c-3.16,1.25-6.3,2.78-9.25,4.57l-6.26,2.48,6.04-3.41c2.87-1.62,17.61-8.62,20-8.91,2.75-.6,9.45.64,10.48-.14l8.59-6.48c4.43-3.35,7.32-11.72,11.16-8.13,1.11-.88,2.18-1.98,3.11-3.25.71-.97,1.85-1.31,2.82-1.99,1.69-1.19,2.68-3.49,4.28-4.82l3-2.52c4.17-3.51,6.51-8.08,9.29-9.32,1.32-.59,2.23.91,2.83,1.69l5.62,7.28c.67.86,1.56,1.04,2.71.88,2.63,2.43,4.65,5.49,6.45,8.62.2.35.96.98,1.36,1.22l3.41-2.08c.55-.34,1.11-.83,1.53-.91s1.35.45,1.61.78l4.56,5.76,2.11,3.62,5.18,4.55c1.37,1.2,3.17,3.54,5.34,3.07,1.59-.34,2.83-1.09,4.19.65l3.14,4,4.22,3.92c1.11,1.03,3.39.86,4.43,2.56.51.84,1.94,1.62,2.83,2.29-1.11-.06-2.24-.24-3.06-.51-.86-1.83-2.36-2.82-4.11-2.69-1.23-1.53-2.83-2.48-4.77-3.24-.04-2-1.48-3.29-3.24-3.7l-1.35-1.92c-.16-.23-1.29-.14-1.36.14-.05.21-.06.67.07.84l.73.86-3.41,1.28-1.28-2.29c-.87-1.56-1.61-3.1-3.1-4.31l-6.29-5.11c-.55-3.5-2.72-3.37-4.56-5.39l-.37,1.56-1.94-4.81c-.36.89-.56,2.23-1.04,2.35l-2.1.57,2.11,1.31-2.04.51c1.14,3.25,3.51,4.08,3.38,6.54-1.08-.33-1.65-1.38-2.33-2.49l-1.31-2.14-3.65-6.45.5,2.25-1.59-2.17.62-.84-2-2.52c-1.57.15-2.98-1.02-4.01-1.9-.36-.45-.83-.91-1.2-1.09l-1.37-.64-.29.3,2.24,2.39.67,1.93-2.03-.86,3.44,4.4.57.81c.09.12-.54.07-.7.07l.64,2.51c-.9.92-1.29,1.56-1.67,2.62l-.99.29c-.28.08-.6,1.12-.55,1.44.15.98,1.3,2,2.07,2.9,1.15,1.35,2.32,3.28,4.12,3.71.4.09,1.44-.19,1.65.12l.85,1.23-1.3-.54c-.2-.08-.5.21-.87.48-1.89-1.14-3.28-2.97-5.12-4.38-1.69-1.3-4.33-3.06-5.43-4.53-.14-.19-.78-.42-.94-.48s0,.63.06.95c-.49.27-1.13,1.42-.96,2.03l1.36,4.94-2.61-5.49-.2,4.26-.33.42-.24-3.59-.74,4.7-.94-3.04-1.65,1.97-4.82,3.08c0-1.97,2.61-2.07,3.62-3.18l3.54-3.9c2.15-2.37,2.15-4,3.66-4.75l3.58,1.49c.1.04.79-.03.75-.14l-.27-.64,3.7-1.98c-.57-2.15-1.51-3.91-3.51-5.61l.1,2.34c-1.57-.25-2.68-1.97-3.04-3.28l-1.45-1.03c-.44-.31.93-2.51-.72-3.41l-1.63,4.31.63-3.78-2.26,1.82,2.62-4.79.74-2.43c-1-1.22-1.52-2.68-1.96-4.75-2.22,3.46-4.91,6.62-8.26,9.49.3-1.39,1.22-2.32,2.19-3.46l-2.78,1.45c-3.31,1.72-5.81,4.68-8.09,7.58l-.13,2.14c-1.3,1.3-3,1.9-4.69,2.77l-2.11,1.08c-1.26.64-2.08,3.45-4.12,2.64l1.41-2.91-3.26,3.33c-.87.89-1.34,1.81-2.27,2.54l-7.4,5.8-3.94,2.79,6.29,3.4,8.36,4.38.22.2c3.26,1.02,5.64-1.17,8.16,1.02-1.47-.26-2.74-.82-3.7-.5-1.59.54-3.58.32-4.55-.31l-.36-.13ZM111.84,77.59l-.83-.94.49,1.19.33-.25ZM112.17,77.8l-.22.03-.21.2.54.92.38-.28-.19-.41.19-.1.25-.18-.39-.69c-.06-.1-.3-.16-.31-.05l-.04.55ZM113.13,78.29l-.17.21.17-.21Z"/>
        <path class="st0" d="M78.84,101.89c-.29.33-1.49.58-1.44.43,2.63-1.93,4.09-5.2,5.58-6.27l2.97-2.13c.06-.43.21-1.26.39-1.55l1.6-2.6c.71.93.47,2.06-.46,2.65-.38.24-.93.79-1.11,1.03,1.25-.5,1.89-.81,3.23-1l-4.77,3.18c-.84.56-1.64,1.27-2.32,2.05l-3.67,4.22Z"/>
        <polygon class="st0" points="122.81 105.3 125.35 106.53 125.03 104.91 128.33 109.16 123.09 105.94 122.81 105.3"/>
        <path class="st0" d="M134.18,96.36l1.3.16c.24.03-.11.83-.39,1.49l-2.6-1.71-.73-.22c-.22-.06-.17-.71-.11-.93.62.41,1.85,1.13,2.54,1.21Z"/>
      </g>
      <path class="st0" d="M48.28,96.87c-.05,0-.1.01-.14.03-.35-.05-1.68-.64-2.02-.85-.01-.16,0-.54.01-.83.03-.93.03-1.36-.1-1.58l-.03-.05c-.24-.38-.25-.48-.18-.53.4-.29.82-.81.86-1.32v-.06c.02-.25.05-.64-.22-.94-.22-.24-.57-.36-1.07-.37h-.04c-.43,0-.67.19-.8.34-.41.5-.24,1.37-.15,1.8-.04,0-.08-.01-.12-.02,0-.04-.01-.08-.02-.12-.06-.38-.19-1.17-1.21-1.17-.03,0-.06,0-.08,0-.34.01-.64.25-.89.71-.82,1.45-1.26,5.35-.92,5.97.27.49.92.53,1.4.57.13,0,.32.02.42.04.11.58-.13,3.56-.21,3.91-.05.19-.66,1.37-1.1,2.23-.95,1.85-.99,1.95-.99,2.08,0,.49,1.26,1.39,1.28,1.4l.14.1,1.17-.47-.24-.32c-.04-.06-.42-.56-.79-.74-.03-.02-.05-.22.12-.59.07-.15.7-1.06,1.16-1.73.6-.87.97-1.4,1.07-1.59.14-.26.14-.63.14-.98,0-.15,0-.38.03-.52.31.17.96.81,1.04,1.02.07.24.13,3.02.05,4.52h1.94s-.24-.66-.24-.66c0,0-.21-.57-.36-1.03-.06-.17-.07-1-.06-1.83l1.07-5.09s.09.01.13.01c.3,0,.51-.22.51-.54,0-.28-.19-.8-.55-.8ZM45.8,98.86c-.1-.26-.03-1.24.04-1.74.26.1.71.33,1.04.5.45.23.79.4,1.04.5l-.77,3.66c0-.53.01-.82,0-.93-.02-.28-.31-.64-.77-1.21-.23-.28-.52-.63-.57-.77Z"/>
      <path class="st0" d="M60.83,93.96c-.05-.1-.12-.23-.18-.39-.14-.42-.44-.47-.56-.47-.18,0-.35.09-.47.19-.62-.38-1.27-.81-1.4-.95-.08-.22-.01-1.25.01-1.58.01-.19.02-.33.02-.41,0-.33-.22-.66-.38-.9,0-.01-.02-.03-.03-.04.05-.04.12-.09.17-.13.04-.03.09-.07.14-.1.35-.27.59-.83.46-1.46-.17-.79-.56-1.34-1.27-1.38-.03,0-.78,0-1.12.56-.22.36-.28.82-.26.94.07.58.45,1.14.31,1.23-.14.09-.26.09-.42.09s-.58-.5-.32-1.08c.16-.37-.26-1.03-.76-.89-.17.05-.33.13-.49.2-.16.07-.32.14-.47.19-.19.06-.34.24-.47.55-.55,1.3-.89,5.63-.51,6.43.29.61,1.01.61,1.32.61h0c.09,0,.17,0,.25,0,.07,0,.14,0,.2,0,.1,0,.16,0,.2.01.13.51.02,3.02-.06,3.64-.03.21-.59,1.15-.99,1.84-.85,1.45-1.19,2.07-1.17,2.38.05.6,1.09,1.12,1.53,1.32l.06.03h1.05l-.31-.9-.03-.04c-.28-.37-.53-.82-.55-.96.13-.31,1.29-2,2.37-3.49l.06-.08v-.1c0-.47.09-.98.19-1.12.16.08.47.51.7.96l.08,5.43.92.31,1.07-.26h.02c.29-.13.92.36.85-.18-.06-.45-.77-.9-1.01-1.02l.76-8.21h.01c.15,0,.41-.02.53-.22.11-.2.01-.39-.07-.55ZM57.89,95.62c0-.36.02-1.36.02-1.78.32.16,1.47.71,2.15.86l-.65,7.01c-.04-.48-.07-.99-.05-1.37.08-1.74.1-2.6-.02-2.9-.2-.5-1.14-1.5-1.44-1.83Z"/>
    </g>
    <g>
      <path class="st0" d="M3.83,97.16l-.79-.09.75-6.4.79.09-.75,6.4Z"/>
      <path class="st0" d="M12.42,73.27c-.4,1.09-1.02,1.84-1.84,2.26-.83.41-1.9.37-3.22-.11l-5.58-2.05.39-1.05,5.52,2.03c1.06.39,1.9.47,2.5.24.61-.23,1.06-.77,1.38-1.62.31-.84.27-1.54-.11-2.11-.38-.57-.98-1-1.81-1.31l-5.69-2.09.39-1.05,5.65,2.08c1.26.46,2.08,1.1,2.46,1.92s.37,1.78-.03,2.87Z"/>
      <path class="st0" d="M16.49,63.43l-8.58-4.79.5-.88,7.67-.74c.36-.04.71-.07,1.06-.1.35-.03.69-.04,1.02-.04l.02-.03c-.69-.35-1.36-.71-2.02-1.08l-5.05-2.82.53-.95,8.58,4.79-.5.88-7.47.74c-.8.07-1.61.1-2.41.06l-.02.03c.81.42,1.62.85,2.43,1.31l4.78,2.67-.53.95Z"/>
      <path class="st0" d="M29.25,44.52l-7.22-6.66,1.97-2.13c.66-.71,1.37-1.13,2.14-1.25.77-.12,1.51.14,2.21.79.48.44.78.92.9,1.44.12.52.08,1.04-.11,1.57s-.51,1.03-.96,1.52l-1.1,1.19,2.94,2.71-.76.83ZM26.41,40.37l.77-.84c.37-.4.65-.79.84-1.17.19-.38.26-.76.2-1.13-.06-.37-.28-.74-.66-1.09-.37-.35-.75-.53-1.12-.56-.37-.03-.73.06-1.06.24-.33.19-.64.43-.91.73l-1,1.09,2.96,2.73Z"/>
      <path class="st0" d="M36.43,37.04l-3.35-10.01.8-.67,9.23,5.09-.91.76-2.64-1.47-3.23,2.7.99,2.85-.9.75ZM36,32.55l2.73-2.28-2.35-1.35c-.26-.15-.59-.34-.98-.57-.39-.23-.77-.47-1.12-.7l-.02.02c.16.39.32.79.47,1.2.15.41.28.78.39,1.11l.89,2.57Z"/>
      <path class="st0" d="M50.29,26.76c-.42.26-.87.49-1.35.67-.47.18-.98.31-1.51.37l-.25-.93c.95-.09,1.81-.37,2.58-.85.53-.33.9-.73,1.11-1.2.21-.47.16-.95-.14-1.44-.21-.34-.52-.58-.91-.71-.39-.13-.98-.1-1.75.09l-1.05.27c-.67.17-1.27.19-1.83.06-.55-.13-1-.47-1.35-1.03-.44-.71-.55-1.41-.33-2.12.22-.7.76-1.33,1.64-1.87.39-.24.79-.44,1.2-.6.42-.16.85-.26,1.32-.3l.24.92c-.48.05-.9.14-1.24.26-.35.12-.68.28-1,.48-.54.33-.9.73-1.07,1.17-.18.45-.13.89.15,1.33.24.39.56.62.94.69.39.07.89.04,1.51-.11l1.07-.26c.82-.2,1.51-.2,2.07,0,.56.2,1,.55,1.32,1.05.29.47.43.95.41,1.44-.02.49-.18.97-.48,1.42-.31.45-.74.85-1.29,1.2Z"/>
      <path class="st0" d="M65.31,18.95l.51-10.55.99-.33,6.76,8.08-1.12.38-1.92-2.33-3.99,1.35-.11,3.02-1.11.38ZM66.54,14.61l3.37-1.14-1.7-2.11c-.19-.23-.42-.53-.7-.89s-.55-.71-.79-1.06h-.03c.01.43.01.86,0,1.3-.01.44-.02.83-.04,1.17l-.1,2.72Z"/>
      <path class="st0" d="M79.49,14.72l-1.79-9.66,2.85-.53c.95-.18,1.77-.08,2.46.28s1.12,1.02,1.3,1.96c.12.64.07,1.21-.15,1.69-.22.48-.56.88-1.03,1.19-.47.31-1.03.52-1.68.64l-1.59.3.73,3.93-1.1.2ZM79.71,9.71l1.12-.21c.53-.1.99-.24,1.37-.44s.66-.46.84-.79c.18-.33.22-.76.12-1.27-.09-.5-.28-.87-.56-1.12-.28-.24-.61-.39-.99-.44-.38-.05-.77-.04-1.17.03l-1.46.27.73,3.96Z"/>
      <path class="st0" d="M91.99,12.9l-.45-9.81,3.04-.14c1.02-.05,1.8.18,2.36.68s.85,1.17.89,2c.02.5-.06.94-.24,1.32s-.42.7-.73.95c-.31.25-.64.45-1,.59l2.86,4.1-1.26.06-2.63-3.89-1.98.09.18,4-1.04.05ZM92.81,7.93l1.5-.07c.71-.03,1.28-.22,1.73-.56.45-.34.66-.86.62-1.56-.03-.69-.25-1.18-.66-1.48s-.99-.43-1.75-.4l-1.62.07.18,3.99Z"/>
      <path class="st0" d="M104.89,12.81l.88-9.79,5.75.52-.08.92-4.63-.42-.3,3.35,4.22.38-.08.9-4.23-.38-.33,3.7,4.68.42-.08.92-5.79-.52ZM109.17,2.08l-1.55-2.08,1.29.12,1.15,2.04-.88-.08Z"/>
      <path class="st0" d="M119.54,15.06c-.49-.11-.96-.27-1.43-.47-.47-.2-.91-.47-1.34-.8l.48-.84c.74.6,1.55,1.01,2.43,1.21.61.14,1.15.11,1.63-.08.48-.19.78-.56.91-1.12.09-.4.04-.78-.15-1.15-.19-.37-.62-.76-1.31-1.17l-.93-.55c-.59-.35-1.04-.76-1.34-1.24-.3-.48-.38-1.04-.24-1.68.18-.81.6-1.39,1.25-1.74.65-.35,1.48-.41,2.48-.18.45.1.87.24,1.28.42.41.18.79.41,1.15.71l-.47.82c-.38-.3-.74-.53-1.07-.69s-.68-.28-1.04-.37c-.62-.14-1.15-.11-1.58.08s-.71.54-.83,1.05c-.1.45-.04.83.19,1.15.23.32.61.65,1.15.99l.94.57c.72.43,1.22.92,1.48,1.45s.33,1.1.2,1.68c-.12.54-.36.98-.72,1.32-.36.34-.81.56-1.34.67s-1.12.09-1.76-.06Z"/>
      <path class="st0" d="M136.66,20.57l4.2-8.88,1.01.48-3.8,8.03,3.93,1.86-.4.85-4.95-2.34Z"/>
      <path class="st0" d="M149.31,18.38l-.05-.65c.33.01.65-.03.95-.14.3-.1.56-.28.76-.52l-.13-.11c-.17-.14-.27-.31-.3-.51-.03-.21.01-.41.13-.6.11-.19.27-.31.48-.38.21-.07.42-.03.63.09.18.1.32.28.41.53.09.25.02.59-.24,1.02-.26.44-.63.77-1.12.99-.49.22-.99.32-1.51.29Z"/>
      <path class="st0" d="M151.31,28.66l9-5.51.83.63-2.88,10.14-.95-.71.84-2.9-3.36-2.54-2.56,1.61-.93-.7ZM155.59,27.23l2.84,2.14.78-2.59c.09-.29.2-.65.34-1.08s.28-.85.43-1.25l-.02-.02c-.34.25-.7.49-1.07.73-.37.24-.7.45-.99.63l-2.3,1.45Z"/>
      <path class="st0" d="M165.12,40.52c-.82-.83-1.23-1.71-1.25-2.63-.02-.92.48-1.88,1.48-2.86l4.24-4.16.79.8-4.2,4.12c-.81.79-1.24,1.51-1.29,2.16-.05.65.24,1.29.88,1.94.63.64,1.28.91,1.95.81.67-.1,1.33-.46,1.96-1.08l4.33-4.25.79.8-4.3,4.22c-.96.94-1.89,1.4-2.79,1.4-.9,0-1.76-.43-2.58-1.26Z"/>
      <path class="st0" d="M173.5,50.14l7.17-5.25-1.87-2.56.75-.55,4.44,6.07-.75.55-1.91-2.61-7.17,5.25-.66-.91Z"/>
      <path class="st0" d="M179.23,58.77l8.65-4.67,1.44,2.68c.48.9.62,1.7.41,2.42s-.68,1.27-1.41,1.67c-.44.24-.87.36-1.29.36-.42,0-.82-.08-1.18-.24-.36-.17-.68-.38-.97-.64l-2.45,4.35-.6-1.11,2.36-4.06-.94-1.74-3.53,1.9-.5-.92ZM184.06,57.35l.71,1.32c.34.62.75,1.06,1.26,1.31.5.25,1.06.22,1.67-.12.6-.33.95-.74,1.04-1.24.09-.5-.04-1.08-.4-1.75l-.77-1.43-3.51,1.9Z"/>
      <path class="st0" d="M184.9,70.34l9.2-3.44,2.02,5.4-.86.32-1.63-4.35-3.16,1.18,1.49,3.97-.85.32-1.49-3.97-3.48,1.3,1.64,4.4-.86.32-2.04-5.45Z"/>
      <path class="st0" d="M193.45,89.18l.79-.11.85,6.38-.79.11-.86-6.38Z"/>
    </g>
    <g>
      <path class="st0" d="M57.02,139.89h1.63v13.94c0,4.49-3.16,7.35-7.79,7.35s-7.72-2.66-7.72-7.55v-13.74h2.73v13.38c0,4.19,2.46,6.06,5.69,6.06s5.46-2.2,5.46-5.69v-13.74Z"/>
      <path class="st0" d="M70.5,160.69v-20.8l5.66-.1c5.36-.1,7.92,2.73,7.92,5.72,0,4.53-3.66,6.86-8.09,6.86-.93,0-1.9-.07-2.76-.13v8.45h-2.73ZM73.23,141.22v9.58c.77.17,1.6.23,2.7.23,2.96,0,5.26-1.86,5.26-4.93,0-2.9-2.03-4.89-5.06-4.89h-2.9Z"/>
      <path class="st0" d="M104.84,160.69l-2.3-7.09h-7.72l-2.33,7.09h-1.56l6.46-19.34v-.93l3.2-1.1,7.16,21.37h-2.9ZM98.81,142.28h-.23l-3.29,9.95h6.79l-3.26-9.95Z"/>
      <path class="st0" d="M117.71,160.69v-20.8h2.7v19.44h4.16c2.79,0,4.23-.2,5.66-.53v1.9h-12.51Z"/>
      <path class="st0" d="M152.45,160.69l-2.3-7.09h-7.72l-2.33,7.09h-1.56l6.46-19.34v-.93l3.19-1.1,7.16,21.37h-2.9ZM146.42,142.28h-.23l-3.29,9.95h6.79l-3.26-9.95Z"/>
    </g>
    <path class="st0" d="M99.14,201.28c-23.76,0-46.6-8.69-64.33-24.47l.33-.37c17.64,15.7,40.36,24.34,64,24.34s46.12-8.56,63.71-24.09l.33.38c-17.68,15.62-40.43,24.21-64.04,24.21Z"/>
  </g>
  <g>
    <path class="st0" d="M262.44,126.2c-3.22,1.86-6.26,3.61-12.5,3.61s-9.29-1.75-12.5-3.61c-3.14-1.81-6.39-3.69-12.79-3.69s-9.64,1.87-12.79,3.69c-3.22,1.86-6.25,3.61-12.5,3.61-3.05,0-5.33-.42-7.24-1.06-.06.21-.12.43-.19.64,1.97.66,4.33,1.1,7.43,1.1,6.4,0,9.64-1.87,12.78-3.69,3.22-1.86,6.25-3.61,12.5-3.61s9.29,1.75,12.5,3.61c3.14,1.81,6.39,3.69,12.79,3.69s9.65-1.87,12.79-3.69c3.22-1.86,6.26-3.61,12.5-3.61v-.68c-6.4,0-9.65,1.87-12.79,3.69Z"/>
    <path class="st0" d="M262.44,132.59c-3.22,1.86-6.26,3.61-12.5,3.61s-9.29-1.75-12.5-3.61c-3.14-1.81-6.39-3.69-12.79-3.69s-9.64,1.87-12.79,3.69c-3.22,1.86-6.25,3.61-12.5,3.61-4.07,0-6.77-.75-9.06-1.78-.07.21-.14.42-.22.63,2.32,1.04,5.14,1.83,9.28,1.83,6.4,0,9.64-1.87,12.78-3.69,3.22-1.86,6.25-3.61,12.5-3.61s9.29,1.75,12.5,3.61c3.14,1.81,6.39,3.69,12.79,3.69s9.65-1.87,12.79-3.69c3.22-1.86,6.26-3.61,12.5-3.61v-.68c-6.4,0-9.65,1.87-12.79,3.69Z"/>
    <path class="st0" d="M262.44,138.97c-3.22,1.86-6.26,3.61-12.5,3.61s-9.29-1.75-12.5-3.61c-3.14-1.81-6.39-3.69-12.79-3.69s-9.64,1.87-12.79,3.69c-3.22,1.86-6.25,3.61-12.5,3.61-5.31,0-8.3-1.27-11.06-2.79-.08.21-.16.42-.25.63,2.74,1.51,5.9,2.85,11.31,2.85,6.4,0,9.64-1.87,12.78-3.69,3.22-1.86,6.25-3.61,12.5-3.61s9.29,1.75,12.5,3.61c3.14,1.81,6.39,3.69,12.79,3.69s9.65-1.87,12.79-3.69c3.22-1.86,6.26-3.61,12.5-3.61v-.68c-6.4,0-9.65,1.87-12.79,3.69Z"/>
    <path class="st0" d="M262.44,145.35c-3.22,1.86-6.26,3.61-12.5,3.61s-9.29-1.75-12.5-3.61c-3.14-1.81-6.39-3.69-12.79-3.69s-9.64,1.87-12.79,3.69c-3.22,1.86-6.25,3.61-12.5,3.61s-9.28-1.75-12.5-3.61c-.24-.14-.49-.28-.74-.42-.09.2-.18.41-.27.61.24.14.49.28.73.42,3.14,1.81,6.39,3.69,12.79,3.69s9.64-1.87,12.78-3.69c3.22-1.86,6.25-3.61,12.5-3.61s9.29,1.75,12.5,3.61c3.14,1.81,6.39,3.69,12.79,3.69s9.65-1.87,12.79-3.69c3.22-1.86,6.26-3.61,12.5-3.61v-.68c-6.4,0-9.65,1.87-12.79,3.69Z"/>
    <path class="st0" d="M262.44,151.73c-3.22,1.86-6.26,3.61-12.5,3.61s-9.29-1.75-12.5-3.61c-3.14-1.81-6.39-3.69-12.79-3.69s-9.64,1.87-12.79,3.69c-3.22,1.86-6.25,3.61-12.5,3.61s-9.28-1.75-12.5-3.61c-1.01-.58-2.04-1.18-3.18-1.71-.1.2-.2.4-.3.6,1.12.52,2.15,1.12,3.2,1.72,3.14,1.81,6.39,3.69,12.79,3.69s9.64-1.87,12.78-3.69c3.22-1.86,6.25-3.61,12.5-3.61s9.29,1.75,12.5,3.61c3.14,1.81,6.39,3.69,12.79,3.69s9.65-1.87,12.79-3.69c3.22-1.86,6.26-3.61,12.5-3.61v-.68c-6.4,0-9.65,1.87-12.79,3.69Z"/>
    <path class="st0" d="M262.44,158.73c-3.22,1.86-6.26,3.61-12.5,3.61s-9.29-1.75-12.5-3.61c-3.14-1.81-6.39-3.69-12.79-3.69s-9.64,1.87-12.79,3.69c-3.22,1.86-6.25,3.61-12.5,3.61s-9.28-1.75-12.5-3.61c-1.01-.58-2.04-1.18-3.18-1.71-.1.2-.2.4-.3.6,1.12.52,2.15,1.12,3.2,1.72,3.14,1.81,6.39,3.69,12.79,3.69s9.64-1.87,12.78-3.69c3.22-1.86,6.25-3.61,12.5-3.61s9.29,1.75,12.5,3.61c3.14,1.81,6.39,3.69,12.79,3.69s9.65-1.87,12.79-3.69c3.22-1.86,6.26-3.61,12.5-3.61v-.68c-6.4,0-9.65,1.87-12.79,3.69Z"/>
  </g>
</svg>